HIERARCHY
ROOT Hips
{
	OFFSET -0.179506 -22.333345 2.821913
	CHANNELS 6 Xposition Yposition Zposition Zrotation Yrotation Xrotation 
	JOINT LeftUpLeg
	{
		OFFSET 6.951974 -9.140623 -0.681533
		CHANNELS 3 Zrotation Yrotation Xrotation
		JOINT LeftLeg
		{
			OFFSET 3.427654 -37.519855 -0.449580
			CHANNELS 3 Zrotation Yrotation Xrotation
			JOINT LeftFoot
			{
				OFFSET -1.359570 -39.796059 -4.369333
				CHANNELS 3 Zrotation Yrotation Xrotation
				JOINT LeftToe
				{
					OFFSET 2.635814 -5.579078 11.928840
					CHANNELS 3 Zrotation Yrotation Xrotation
					End Site
					{
						OFFSET 0.000000 0.000000 0.000000
					}
				}
			}
		}
	}
	JOINT RightUpLeg
	{
		OFFSET -6.767048 -9.052170 -0.431982
		CHANNELS 3 Zrotation Yrotation Xrotation
		JOINT RightLeg
		{
			OFFSET -3.829005 -38.256897 -0.885003
			CHANNELS 3 Zrotation Yrotation Xrotation
			JOINT RightFoot
			{
				OFFSET 1.577377 -39.841461 -4.231180
				CHANNELS 3 Zrotation Yrotation Xrotation
				JOINT RightToe
				{
					OFFSET -2.537174 -4.814398 12.334795
					CHANNELS 3 Zrotation Yrotation Xrotation
					End Site
					{
						OFFSET 0.000000 0.000000 0.000000
					}
				}
			}
		}
	}
	JOINT Spine
	{
		OFFSET -0.253288 10.896323 -2.669631
		CHANNELS 3 Zrotation Yrotation Xrotation
		JOINT Spine1
		{
			OFFSET 0.548704 13.518043 0.109247
			CHANNELS 3 Zrotation Yrotation Xrotation
			JOINT Spine2
			{
				OFFSET 0.145701 5.292222 2.542457
				CHANNELS 3 Zrotation Yrotation Xrotation
				JOINT Neck
				{
					OFFSET -0.277840 21.387037 -4.285703
					CHANNELS 3 Zrotation Yrotation Xrotation
					JOINT Head
					{
						OFFSET 0.515184 6.496960 5.134897
						CHANNELS 3 Zrotation Yrotation Xrotation
						End Site
						{
							OFFSET 0.000000 0.000000 0.000000
						}
					}
				}
				JOINT LeftShoulder
				{
					OFFSET 7.884473 12.174932 -3.408961
					CHANNELS 3 Zrotation Yrotation Xrotation
					JOINT LeftArm
					{
						OFFSET 9.097692 3.046888 -0.886815
						CHANNELS 3 Zrotation Yrotation Xrotation
						JOINT LeftForeArm
						{
							OFFSET 25.961220 -1.277207 -2.745643
							CHANNELS 3 Zrotation Yrotation Xrotation
							JOINT LeftHand
							{
								OFFSET 24.923361 0.898606 -0.117091
								CHANNELS 3 Zrotation Yrotation Xrotation
								End Site
								{
									OFFSET 0.000000 0.000000 0.000000
								}
							}
						}
					}
				}
				JOINT RightShoulder
				{
					OFFSET -8.175920 11.883285 -3.861528
					CHANNELS 3 Zrotation Yrotation Xrotation
					JOINT RightArm
					{
						OFFSET -9.601238 3.255117 -0.914307
						CHANNELS 3 Zrotation Yrotation Xrotation
						JOINT RightForeArm
						{
							OFFSET -25.374195 -1.332924 -2.140099
							CHANNELS 3 Zrotation Yrotation Xrotation
							JOINT RightHand
							{
								OFFSET -25.529810 0.777228 -0.555919
								CHANNELS 3 Zrotation Yrotation Xrotation
								End Site
								{
									OFFSET 0.000000 0.000000 0.000000
								}
							}
						}
					}
				}
			}
		}
	}
}
MOTION
Frames: 8
Frame Time: 0.033333
-0.179506 105.773468 2.821913 179.863529 0.086017 176.015508 -6.488244 -0.905241 4.941946 -0.104541 -9.963372 5.672840 2.429419 12.844817 -9.253765 6.733681 1.259377 0.745479 -1.558094 0.007687 -13.099810 0.466648 -3.153714 51.061754 5.110792 -9.471731 6.070230 3.690582 -1.529633 1.200677 -0.735982 0.411882 7.458692 4.901814 -2.419139 3.004580 -0.747541 -0.383420 -1.630504 4.450946 -0.364928 -0.304174 2.140793 -0.067006 2.663664 -23.281230 8.733164 1.923088 -53.623486 -5.580600 8.273144 0.323632 -10.448890 9.142945 0.119991 -0.425380 9.311401 18.463550 -3.876532 -0.100673 53.479568 -3.944738 12.674217 -0.319016 13.695188 2.409569 2.722625 -0.567639 2.123279 
-0.296529 105.843460 2.750502 -179.934834 -0.313021 175.743797 -6.227768 -0.586654 5.501491 -0.130598 -10.056846 5.193135 2.367054 12.679691 -8.982211 6.912722 1.202588 0.734627 -1.690211 0.388955 -14.725746 0.895619 -3.463026 53.961750 5.163194 -9.460239 6.597878 3.630060 -1.370849 1.173889 -0.881196 0.042419 8.000652 5.159095 -2.417652 3.036928 -0.773325 -0.414667 -1.423967 4.766220 -0.436132 -0.736625 2.101090 -0.756667 2.397278 -22.608653 8.115929 1.736352 -52.349475 -6.303390 7.681395 0.234849 -10.858285 8.829915 0.252406 -0.614777 8.978843 18.246829 -3.823870 -0.202799 53.568349 -4.261848 13.014940 -0.303102 14.367654 3.438076 3.585748 -0.880200 1.758533 
-0.223615 105.941895 2.649358 -179.704640 -0.506649 175.610627 -5.857309 -0.319396 5.918522 -0.079791 -10.548118 4.735427 2.104805 12.761628 -8.700202 6.966966 1.241627 0.699155 -1.394965 0.924179 -15.689503 0.996142 -3.326279 54.733695 4.832841 -9.643994 5.121580 3.550015 -1.309368 1.168630 -1.051872 -0.232891 8.408572 5.307517 -2.583756 3.077181 -0.766426 -0.408863 -1.320400 5.014692 -0.280655 -0.927884 2.227213 -1.460564 1.993310 -21.986464 7.331268 1.537851 -50.449554 -6.959481 6.948157 0.015029 -11.389086 8.380241 0.089712 -0.734347 9.310474 18.132337 -3.489055 -0.115633 53.510941 -4.695770 13.296834 -0.042979 15.316552 4.856168 4.833210 -1.025761 1.552906 
-0.039928 106.045105 2.932778 -179.413766 -1.445144 175.349921 -5.264888 -0.027185 6.184025 0.025010 -11.061414 4.274365 1.687636 12.336014 -8.481571 6.944001 1.262216 0.710247 -1.205791 1.226616 -16.433417 1.242793 -3.331579 54.037215 4.796603 -9.619141 3.677615 3.364916 -1.218176 1.202174 -1.189843 -0.404771 8.865304 5.401850 -2.667187 2.796633 -0.579873 -0.404602 -1.126684 5.168650 -0.409482 -1.107236 2.532077 -2.246817 2.009249 -21.187609 6.773627 1.158425 -48.689376 -8.022195 6.205137 -0.100774 -12.003817 7.004737 0.786229 -0.894405 9.197957 18.085122 -3.451187 -0.181667 53.638248 -4.964485 13.444402 0.176343 15.734672 4.610459 5.082672 -1.148503 1.043785 
-0.079742 106.140671 3.002629 -178.847398 -2.420178 175.261933 -4.591766 0.209948 6.589973 0.331672 -11.445439 3.411463 1.286558 11.900915 -8.234574 6.967747 1.227269 0.888553 -0.854934 1.535126 -16.975274 1.537253 -3.405055 52.055678 4.916562 -9.605752 1.993941 3.107297 -1.196276 1.316210 -1.265487 -0.604524 9.158975 5.570395 -2.929935 2.529771 -0.383680 -0.418021 -1.048483 5.202550 -0.245307 -1.182357 2.681872 -2.994861 2.245202 -20.402007 6.027038 0.919164 -46.720233 -9.197954 5.476863 -0.081918 -12.320271 5.985692 1.312919 -1.042205 9.494727 18.032328 -3.342007 -0.218115 53.670945 -5.099054 13.592379 0.077521 16.044478 4.565555 5.762782 -1.298824 0.141505 
-0.104600 106.212112 3.018120 -178.347435 -3.257811 175.297534 -3.908314 0.433429 6.924086 0.523626 -11.829082 2.496840 0.858057 11.405106 -8.031988 6.877895 1.248747 1.073216 -0.325765 1.932052 -16.990103 1.670305 -3.094416 48.607443 4.894009 -9.614334 0.074130 2.887073 -1.175882 1.416643 -1.430191 -0.594383 9.186073 5.653795 -3.154454 2.454271 -0.169927 -0.383615 -1.003038 5.196608 -0.269939 -1.187449 2.942274 -3.782220 2.385775 -19.668175 5.295676 0.665426 -44.864995 -10.427216 4.689739 0.137610 -12.709691 4.558814 1.676791 -1.265156 9.967923 17.923516 -3.029725 -0.225097 53.805644 -5.095792 13.721227 -0.007232 16.268642 4.200830 6.462013 -1.296687 -0.450976 
-0.022643 106.249069 2.992402 -178.039838 -4.354088 175.338156 -3.376243 0.523372 6.966201 0.610486 -12.330447 2.159122 0.594883 10.941207 -7.962564 6.749472 1.258562 1.187966 0.127606 2.336158 -17.200777 1.965464 -2.418711 45.330082 5.051421 -9.563142 -1.108292 2.632675 -1.206652 1.485591 -1.648693 -0.639898 9.196438 5.665503 -3.332355 2.278048 -0.010253 -0.379116 -0.983705 5.161630 -0.430469 -1.213131 3.225348 -4.440641 2.596317 -18.971461 4.639478 0.313871 -42.957242 -11.517247 4.161952 0.430799 -13.348216 3.038253 2.321663 -1.483813 10.083301 17.898019 -2.756836 -0.387738 53.776944 -5.095565 14.038753 0.140071 16.558612 3.659459 6.631221 -1.078440 -1.131050 
-0.092109 106.265106 2.999277 -177.790177 -5.387277 175.244331 -3.039121 0.445045 7.223095 0.696733 -13.032577 1.671612 0.362755 10.760798 -7.920050 6.636080 1.238303 1.310892 0.422614 2.905875 -17.057308 2.220970 -1.195698 42.498057 5.214125 -9.259643 -2.305108 2.509658 -1.243201 1.549856 -2.087464 -0.579421 9.269796 5.638419 -3.504135 2.118728 0.079661 -0.352774 -0.988216 5.172289 -0.457934 -1.168275 3.501437 -5.053089 2.620432 -18.310735 4.074524 -0.100719 -41.185756 -12.423116 3.663470 0.542411 -14.103401 1.861102 2.870365 -1.723019 10.200082 18.009275 -2.468352 -0.678373 53.881991 -4.775432 14.390722 0.110239 16.517095 2.853140 6.451977 -0.972977 -1.295322 
